<svg width="37" height="37" viewBox="0 0 37 37" fill="none" xmlns="http://www.w3.org/2000/svg">
<path fill-rule="evenodd" clip-rule="evenodd" d="M18.9497 36.4446C28.8908 36.4446 36.9497 28.3857 36.9497 18.4446C36.9497 8.50345 28.8908 0.44458 18.9497 0.44458C9.00858 0.44458 0.949707 8.50345 0.949707 18.4446C0.949707 28.3857 9.00858 36.4446 18.9497 36.4446ZM19.8777 5.93194C19.5418 5.09547 18.3577 5.09547 18.0218 5.93194L15.35 12.5853C15.2069 12.9415 14.8726 13.1844 14.4896 13.2104L7.33624 13.6954C6.43691 13.7564 6.07099 14.8826 6.76272 15.4605L12.2648 20.0576C12.5594 20.3037 12.6871 20.6967 12.5935 21.069L10.8442 28.0221C10.6243 28.8963 11.5823 29.5923 12.3457 29.113L18.418 25.3008C18.7431 25.0967 19.1564 25.0967 19.4815 25.3008L25.5538 29.113C26.3172 29.5923 27.2752 28.8963 27.0553 28.0221L25.306 21.069C25.2124 20.6967 25.3401 20.3037 25.6347 20.0576L31.1368 15.4605C31.8285 14.8826 31.4626 13.7564 30.5633 13.6954L23.4099 13.2104C23.0269 13.1844 22.6926 12.9415 22.5495 12.5853L19.8777 5.93194Z" fill="#F14624"/>
</svg>
