<svg width="218" height="37" viewBox="0 0 218 37" fill="none" xmlns="http://www.w3.org/2000/svg">
<path d="M0.904111 26.8508C2.17809 20.2435 3.42466 13.6316 4.69407 6.93752H13.032C14.3516 11.1887 15.6667 15.4216 17.1051 20.0471C20.3288 15.4809 23.3699 11.1704 26.4567 6.80054H34.8311C33.2832 15.0517 31.7444 23.2526 30.1964 31.4992H22.1827C22.7489 28.1567 23.2968 24.9284 23.8402 21.7001C23.6804 21.6362 23.5206 21.5723 23.3653 21.5083C21 24.8097 18.6347 28.1065 16.1964 31.5129H13.6804C12.5799 28.0837 11.4795 24.6499 10.2009 20.6681C9.42468 24.6545 8.75344 28.0882 8.07764 31.5494H0C0 29.9877 0.610009 28.4071 0.904111 26.8508Z" fill="#FAFAFA"/>
<path d="M215.64 12.3257H208.763C207.571 18.586 206.416 24.6637 205.229 30.9148H197.183C198.347 24.7961 199.512 18.6773 200.713 12.3714H193.535C193.923 10.2755 194.279 8.37139 194.726 5.97412H217.357C216.953 8.05746 216.039 10.7116 215.64 12.3257Z" fill="#F7F6F6"/>
<path d="M133.055 31.4808C134.754 22.8871 136.361 14.7593 138.005 6.46244C143.452 6.46244 148.886 5.73185 154.311 6.81861C156.959 7.34829 159.037 8.43505 159.498 11.394C159.946 14.2707 158.914 16.4259 156.334 17.8141C156.142 17.9191 155.973 18.0835 155.809 18.2296C155.758 18.2753 155.758 18.3711 155.731 18.4396C160.014 21.5629 159.375 27.5401 154.489 29.7228C151.019 31.2753 147.274 31.3529 143.571 31.4625C140.238 31.5629 136.895 31.4853 133.055 31.4853V31.4808ZM148.608 24.4396C149.133 23.5766 149.178 22.8734 148.621 22.1063C146.763 21.4077 144.841 21.8415 142.95 22.0469C142.585 23.0606 142.265 23.9739 142.626 25.1428C144.608 24.9693 146.658 25.6543 148.612 24.4396H148.608ZM144.288 15.4853C149.064 16.088 150.256 15.5949 149.932 13.1794C148.37 12.2615 146.676 12.2296 144.964 12.5172C144.238 13.4031 144.283 14.394 144.288 15.4853Z" fill="#F9F9F8"/>
<path d="M188.512 6.37573C188.123 8.45336 187.781 10.3027 187.406 12.3073H175.457C175.219 13.394 175.014 14.3301 174.753 15.5127H185.475C185.069 17.6726 184.708 19.5858 184.311 21.6954H173.868C173.374 22.7137 173.032 23.5904 173.119 24.8644H184.95C185.014 27.1794 184.356 29.079 183.932 31.0607H163.726C165.311 22.7959 166.872 14.6543 168.461 6.37573H188.516H188.512Z" fill="#FAFAFA"/>
<path d="M78.3931 29.4079C79.4616 27.4078 80.4798 25.4946 81.4935 23.5951C88.6214 26.7046 91.5438 26.8919 93.078 24.3439C92.6442 22.9375 91.2926 22.8645 90.2059 22.4763C88.6442 21.9238 86.9958 21.5996 85.4616 20.9832C81.3474 19.3211 80.0552 15.28 82.3337 11.4672C84.8862 7.20689 90.3429 5.0836 96.1054 6.1247C98.3337 6.52653 100.521 7.10187 102.809 8.08817C101.891 10.0516 100.982 12.0014 100.055 13.9786C96.5027 13.385 93.11 11.0745 89.5027 13.2754C89.6625 14.9192 90.6899 15.2434 91.7173 15.5448C93.4525 16.0562 95.2516 16.4033 96.9274 17.0654C102.101 19.111 103.042 25.248 98.6808 28.7457C95.0369 31.6681 90.6762 32.2709 86.1967 31.8234C83.594 31.5631 80.9228 31.2115 78.3931 29.4079Z" fill="#F9F8F8"/>
<path d="M111.562 31.4306C112.758 25.1064 113.891 19.0973 115.055 12.9374C112.841 12.353 110.567 12.9694 108.229 12.5584C108.051 10.4854 108.85 8.58127 109.178 6.51733H131.557C131.548 8.63606 130.968 10.5676 130.544 12.595H123.242C122.06 18.7548 120.886 24.8872 119.69 31.1156C117.083 31.6087 114.539 31.353 111.557 31.4306H111.562Z" fill="#F8F8F7"/>
<path fill-rule="evenodd" clip-rule="evenodd" d="M57.0181 36.9102C66.9592 36.9102 75.0181 28.8513 75.0181 18.9102C75.0181 8.96903 66.9592 0.910156 57.0181 0.910156C47.0769 0.910156 39.0181 8.96903 39.0181 18.9102C39.0181 28.8513 47.0769 36.9102 57.0181 36.9102ZM57.9462 6.39752C57.6103 5.56105 56.4262 5.56105 56.0903 6.39752L53.4185 13.0509C53.2754 13.4071 52.9411 13.65 52.5581 13.676L45.4047 14.161C44.5054 14.222 44.1395 15.3482 44.8312 15.9261L50.3333 20.5232C50.6279 20.7693 50.7556 21.1623 50.662 21.5346L48.9127 28.4877C48.6928 29.3619 49.6508 30.0579 50.4142 29.5786L56.4865 25.7664C56.8116 25.5623 57.2249 25.5623 57.55 25.7664L63.6223 29.5786C64.3857 30.0579 65.3437 29.3619 65.1238 28.4877L63.3745 21.5346C63.2809 21.1623 63.4086 20.7693 63.7032 20.5232L69.2053 15.9261C69.897 15.3482 69.5311 14.222 68.6318 14.161L61.4784 13.676C61.0954 13.65 60.7611 13.4071 60.618 13.0509L57.9462 6.39752Z" fill="#F14624"/>
<circle cx="56.7534" cy="18.9102" r="18" fill="#F14624"/>
<path d="M55.8252 6.39752C56.1611 5.56105 57.3453 5.56105 57.6812 6.39752L60.353 13.0509C60.496 13.4071 60.8304 13.65 61.2133 13.676L68.3667 14.161C69.2661 14.222 69.632 15.3482 68.9402 15.9261L63.4381 20.5232C63.1436 20.7693 63.0159 21.1623 63.1095 21.5346L64.8587 28.4877C65.0786 29.3619 64.1207 30.0579 63.3572 29.5786L57.2849 25.7664C56.9598 25.5623 56.5466 25.5623 56.2215 25.7664L50.1492 29.5786C49.3858 30.0579 48.4278 29.3619 48.6477 28.4877L50.3969 21.5346C50.4906 21.1623 50.3629 20.7693 50.0683 20.5232L44.5662 15.9261C43.8745 15.3482 44.2404 14.222 45.1397 14.161L52.2931 13.676C52.6761 13.65 53.0104 13.4071 53.1534 13.0509L55.8252 6.39752Z" fill="#F9F8F8"/>
</svg>
