<svg xmlns="http://www.w3.org/2000/svg" xmlns:xlink="http://www.w3.org/1999/xlink" id="QRCode" viewBox="0 0 400 400" version="1.1"><rect width="400" height="400" fill="black" /><g transform="translate(32.653 32.653) scale(0.816 0.816)"><rect width="410" height="410" clip-path="url(#main_clip)" fill="#dde4ec" /><svg viewBox="0 0 37 37" fill="none" xmlns="http://www.w3.org/2000/svg" x="140" y="140" width="130" height="130">
<path fill-rule="evenodd" clip-rule="evenodd" d="M18.9497 36.4446C28.8908 36.4446 36.9497 28.3857 36.9497 18.4446C36.9497 8.50345 28.8908 0.44458 18.9497 0.44458C9.00858 0.44458 0.949707 8.50345 0.949707 18.4446C0.949707 28.3857 9.00858 36.4446 18.9497 36.4446ZM19.8777 5.93194C19.5418 5.09547 18.3577 5.09547 18.0218 5.93194L15.35 12.5853C15.2069 12.9415 14.8726 13.1844 14.4896 13.2104L7.33624 13.6954C6.43691 13.7564 6.07099 14.8826 6.76272 15.4605L12.2648 20.0576C12.5594 20.3037 12.6871 20.6967 12.5935 21.069L10.8442 28.0221C10.6243 28.8963 11.5823 29.5923 12.3457 29.113L18.418 25.3008C18.7431 25.0967 19.1564 25.0967 19.4815 25.3008L25.5538 29.113C26.3172 29.5923 27.2752 28.8963 27.0553 28.0221L25.306 21.069C25.2124 20.6967 25.3401 20.3037 25.6347 20.0576L31.1368 15.4605C31.8285 14.8826 31.4626 13.7564 30.5633 13.6954L23.4099 13.2104C23.0269 13.1844 22.6926 12.9415 22.5495 12.5853L19.8777 5.93194Z" fill="#F14624"/>
</svg>
</g><defs><path d="M0 0h10v10H0z" id="m" /><path d="M0 0h30v30H0z" id="i" /><path d="M0 0h70v70H0zm10 10v50h50V10z" id="o" /><clipPath id="main_clip"><use xlink:href="#o" transform="translate(0 0)" /><use xlink:href="#o" transform="translate(340 0)" /><use xlink:href="#o" transform="translate(0 340)" /><use xlink:href="#i" transform="translate(20 20)" /><use xlink:href="#i" transform="translate(360 20)" /><use xlink:href="#i" transform="translate(20 360)" /><use xlink:href="#m" transform="translate(80 0)" /><use xlink:href="#m" transform="translate(100 0)" /><use xlink:href="#m" transform="translate(110 0)" /><use xlink:href="#m" transform="translate(140 0)" /><use xlink:href="#m" transform="translate(150 0)" /><use xlink:href="#m" transform="translate(180 0)" /><use xlink:href="#m" transform="translate(190 0)" /><use xlink:href="#m" transform="translate(240 0)" /><use xlink:href="#m" transform="translate(260 0)" /><use xlink:href="#m" transform="translate(300 0)" /><use xlink:href="#m" transform="translate(310 0)" /><use xlink:href="#m" transform="translate(320 0)" /><use xlink:href="#m" transform="translate(80 10)" /><use xlink:href="#m" transform="translate(90 10)" /><use xlink:href="#m" transform="translate(150 10)" /><use xlink:href="#m" transform="translate(160 10)" /><use xlink:href="#m" transform="translate(180 10)" /><use xlink:href="#m" transform="translate(200 10)" /><use xlink:href="#m" transform="translate(210 10)" /><use xlink:href="#m" transform="translate(240 10)" /><use xlink:href="#m" transform="translate(270 10)" /><use xlink:href="#m" transform="translate(280 10)" /><use xlink:href="#m" transform="translate(290 10)" /><use xlink:href="#m" transform="translate(320 10)" /><use xlink:href="#m" transform="translate(80 20)" /><use xlink:href="#m" transform="translate(100 20)" /><use xlink:href="#m" transform="translate(110 20)" /><use xlink:href="#m" transform="translate(120 20)" /><use xlink:href="#m" transform="translate(130 20)" /><use xlink:href="#m" transform="translate(160 20)" /><use xlink:href="#m" transform="translate(170 20)" /><use xlink:href="#m" transform="translate(190 20)" /><use xlink:href="#m" transform="translate(200 20)" /><use xlink:href="#m" transform="translate(220 20)" /><use xlink:href="#m" transform="translate(230 20)" /><use xlink:href="#m" transform="translate(260 20)" /><use xlink:href="#m" transform="translate(270 20)" /><use xlink:href="#m" transform="translate(320 20)" /><use xlink:href="#m" transform="translate(90 30)" /><use xlink:href="#m" transform="translate(100 30)" /><use xlink:href="#m" transform="translate(150 30)" /><use xlink:href="#m" transform="translate(160 30)" /><use xlink:href="#m" transform="translate(180 30)" /><use xlink:href="#m" transform="translate(190 30)" /><use xlink:href="#m" transform="translate(220 30)" /><use xlink:href="#m" transform="translate(290 30)" /><use xlink:href="#m" transform="translate(90 40)" /><use xlink:href="#m" transform="translate(120 40)" /><use xlink:href="#m" transform="translate(150 40)" /><use xlink:href="#m" transform="translate(180 40)" /><use xlink:href="#m" transform="translate(190 40)" /><use xlink:href="#m" transform="translate(200 40)" /><use xlink:href="#m" transform="translate(230 40)" /><use xlink:href="#m" transform="translate(260 40)" /><use xlink:href="#m" transform="translate(280 40)" /><use xlink:href="#m" transform="translate(310 40)" /><use xlink:href="#m" transform="translate(320 40)" /><use xlink:href="#m" transform="translate(80 50)" /><use xlink:href="#m" transform="translate(100 50)" /><use xlink:href="#m" transform="translate(110 50)" /><use xlink:href="#m" transform="translate(120 50)" /><use xlink:href="#m" transform="translate(150 50)" /><use xlink:href="#m" transform="translate(160 50)" /><use xlink:href="#m" transform="translate(180 50)" /><use xlink:href="#m" transform="translate(200 50)" /><use xlink:href="#m" transform="translate(220 50)" /><use xlink:href="#m" transform="translate(230 50)" /><use xlink:href="#m" transform="translate(270 50)" /><use xlink:href="#m" transform="translate(300 50)" /><use xlink:href="#m" transform="translate(320 50)" /><use xlink:href="#m" transform="translate(80 60)" /><use xlink:href="#m" transform="translate(100 60)" /><use xlink:href="#m" transform="translate(120 60)" /><use xlink:href="#m" transform="translate(140 60)" /><use xlink:href="#m" transform="translate(160 60)" /><use xlink:href="#m" transform="translate(180 60)" /><use xlink:href="#m" transform="translate(200 60)" /><use xlink:href="#m" transform="translate(220 60)" /><use xlink:href="#m" transform="translate(240 60)" /><use xlink:href="#m" transform="translate(260 60)" /><use xlink:href="#m" transform="translate(280 60)" /><use xlink:href="#m" transform="translate(300 60)" /><use xlink:href="#m" transform="translate(320 60)" /><use xlink:href="#m" transform="translate(20 80)" /><use xlink:href="#m" transform="translate(30 80)" /><use xlink:href="#m" transform="translate(40 80)" /><use xlink:href="#m" transform="translate(60 80)" /><use xlink:href="#m" transform="translate(0 90)" /><use xlink:href="#m" transform="translate(10 90)" /><use xlink:href="#m" transform="translate(50 90)" /><use xlink:href="#m" transform="translate(10 100)" /><use xlink:href="#m" transform="translate(50 100)" /><use xlink:href="#m" transform="translate(60 100)" /><use xlink:href="#m" transform="translate(50 120)" /><use xlink:href="#m" transform="translate(60 120)" /><use xlink:href="#m" transform="translate(0 130)" /><use xlink:href="#m" transform="translate(10 130)" /><use xlink:href="#m" transform="translate(50 130)" /><use xlink:href="#m" transform="translate(0 140)" /><use xlink:href="#m" transform="translate(20 140)" /><use xlink:href="#m" transform="translate(30 140)" /><use xlink:href="#m" transform="translate(60 140)" /><use xlink:href="#m" transform="translate(0 150)" /><use xlink:href="#m" transform="translate(30 150)" /><use xlink:href="#m" transform="translate(0 160)" /><use xlink:href="#m" transform="translate(20 160)" /><use xlink:href="#m" transform="translate(40 160)" /><use xlink:href="#m" transform="translate(50 160)" /><use xlink:href="#m" transform="translate(60 160)" /><use xlink:href="#m" transform="translate(0 170)" /><use xlink:href="#m" transform="translate(20 170)" /><use xlink:href="#m" transform="translate(40 170)" /><use xlink:href="#m" transform="translate(50 170)" /><use xlink:href="#m" transform="translate(0 180)" /><use xlink:href="#m" transform="translate(20 180)" /><use xlink:href="#m" transform="translate(40 180)" /><use xlink:href="#m" transform="translate(50 180)" /><use xlink:href="#m" transform="translate(60 180)" /><use xlink:href="#m" transform="translate(10 190)" /><use xlink:href="#m" transform="translate(20 190)" /><use xlink:href="#m" transform="translate(30 190)" /><use xlink:href="#m" transform="translate(50 190)" /><use xlink:href="#m" transform="translate(0 200)" /><use xlink:href="#m" transform="translate(10 200)" /><use xlink:href="#m" transform="translate(40 200)" /><use xlink:href="#m" transform="translate(50 200)" /><use xlink:href="#m" transform="translate(60 200)" /><use xlink:href="#m" transform="translate(0 210)" /><use xlink:href="#m" transform="translate(20 210)" /><use xlink:href="#m" transform="translate(40 210)" /><use xlink:href="#m" transform="translate(0 220)" /><use xlink:href="#m" transform="translate(30 220)" /><use xlink:href="#m" transform="translate(40 220)" /><use xlink:href="#m" transform="translate(60 220)" /><use xlink:href="#m" transform="translate(10 230)" /><use xlink:href="#m" transform="translate(20 230)" /><use xlink:href="#m" transform="translate(40 230)" /><use xlink:href="#m" transform="translate(10 240)" /><use xlink:href="#m" transform="translate(20 240)" /><use xlink:href="#m" transform="translate(30 240)" /><use xlink:href="#m" transform="translate(60 240)" /><use xlink:href="#m" transform="translate(10 250)" /><use xlink:href="#m" transform="translate(40 250)" /><use xlink:href="#m" transform="translate(50 250)" /><use xlink:href="#m" transform="translate(20 260)" /><use xlink:href="#m" transform="translate(40 260)" /><use xlink:href="#m" transform="translate(50 260)" /><use xlink:href="#m" transform="translate(60 260)" /><use xlink:href="#m" transform="translate(0 270)" /><use xlink:href="#m" transform="translate(20 270)" /><use xlink:href="#m" transform="translate(40 270)" /><use xlink:href="#m" transform="translate(50 270)" /><use xlink:href="#m" transform="translate(20 280)" /><use xlink:href="#m" transform="translate(40 280)" /><use xlink:href="#m" transform="translate(50 280)" /><use xlink:href="#m" transform="translate(60 280)" /><use xlink:href="#m" transform="translate(0 290)" /><use xlink:href="#m" transform="translate(10 290)" /><use xlink:href="#m" transform="translate(20 290)" /><use xlink:href="#m" transform="translate(30 290)" /><use xlink:href="#m" transform="translate(40 290)" /><use xlink:href="#m" transform="translate(0 300)" /><use xlink:href="#m" transform="translate(50 300)" /><use xlink:href="#m" transform="translate(60 300)" /><use xlink:href="#m" transform="translate(0 310)" /><use xlink:href="#m" transform="translate(20 310)" /><use xlink:href="#m" transform="translate(30 310)" /><use xlink:href="#m" transform="translate(50 310)" /><use xlink:href="#m" transform="translate(0 320)" /><use xlink:href="#m" transform="translate(30 320)" /><use xlink:href="#m" transform="translate(60 320)" /><use xlink:href="#m" transform="translate(80 70)" /><use xlink:href="#m" transform="translate(90 70)" /><use xlink:href="#m" transform="translate(120 70)" /><use xlink:href="#m" transform="translate(160 70)" /><use xlink:href="#m" transform="translate(170 70)" /><use xlink:href="#m" transform="translate(200 70)" /><use xlink:href="#m" transform="translate(210 70)" /><use xlink:href="#m" transform="translate(220 70)" /><use xlink:href="#m" transform="translate(230 70)" /><use xlink:href="#m" transform="translate(250 70)" /><use xlink:href="#m" transform="translate(270 70)" /><use xlink:href="#m" transform="translate(300 70)" /><use xlink:href="#m" transform="translate(80 80)" /><use xlink:href="#m" transform="translate(90 80)" /><use xlink:href="#m" transform="translate(110 80)" /><use xlink:href="#m" transform="translate(130 80)" /><use xlink:href="#m" transform="translate(140 80)" /><use xlink:href="#m" transform="translate(170 80)" /><use xlink:href="#m" transform="translate(190 80)" /><use xlink:href="#m" transform="translate(200 80)" /><use xlink:href="#m" transform="translate(210 80)" /><use xlink:href="#m" transform="translate(220 80)" /><use xlink:href="#m" transform="translate(230 80)" /><use xlink:href="#m" transform="translate(250 80)" /><use xlink:href="#m" transform="translate(260 80)" /><use xlink:href="#m" transform="translate(270 80)" /><use xlink:href="#m" transform="translate(290 80)" /><use xlink:href="#m" transform="translate(320 80)" /><use xlink:href="#m" transform="translate(330 80)" /><use xlink:href="#m" transform="translate(340 80)" /><use xlink:href="#m" transform="translate(350 80)" /><use xlink:href="#m" transform="translate(380 80)" /><use xlink:href="#m" transform="translate(390 80)" /><use xlink:href="#m" transform="translate(400 80)" /><use xlink:href="#m" transform="translate(70 90)" /><use xlink:href="#m" transform="translate(80 90)" /><use xlink:href="#m" transform="translate(100 90)" /><use xlink:href="#m" transform="translate(110 90)" /><use xlink:href="#m" transform="translate(120 90)" /><use xlink:href="#m" transform="translate(130 90)" /><use xlink:href="#m" transform="translate(150 90)" /><use xlink:href="#m" transform="translate(170 90)" /><use xlink:href="#m" transform="translate(180 90)" /><use xlink:href="#m" transform="translate(210 90)" /><use xlink:href="#m" transform="translate(240 90)" /><use xlink:href="#m" transform="translate(260 90)" /><use xlink:href="#m" transform="translate(290 90)" /><use xlink:href="#m" transform="translate(300 90)" /><use xlink:href="#m" transform="translate(310 90)" /><use xlink:href="#m" transform="translate(320 90)" /><use xlink:href="#m" transform="translate(340 90)" /><use xlink:href="#m" transform="translate(360 90)" /><use xlink:href="#m" transform="translate(380 90)" /><use xlink:href="#m" transform="translate(390 90)" /><use xlink:href="#m" transform="translate(400 90)" /><use xlink:href="#m" transform="translate(70 100)" /><use xlink:href="#m" transform="translate(80 100)" /><use xlink:href="#m" transform="translate(90 100)" /><use xlink:href="#m" transform="translate(110 100)" /><use xlink:href="#m" transform="translate(130 100)" /><use xlink:href="#m" transform="translate(150 100)" /><use xlink:href="#m" transform="translate(170 100)" /><use xlink:href="#m" transform="translate(210 100)" /><use xlink:href="#m" transform="translate(240 100)" /><use xlink:href="#m" transform="translate(250 100)" /><use xlink:href="#m" transform="translate(260 100)" /><use xlink:href="#m" transform="translate(270 100)" /><use xlink:href="#m" transform="translate(320 100)" /><use xlink:href="#m" transform="translate(350 100)" /><use xlink:href="#m" transform="translate(360 100)" /><use xlink:href="#m" transform="translate(80 110)" /><use xlink:href="#m" transform="translate(110 110)" /><use xlink:href="#m" transform="translate(140 110)" /><use xlink:href="#m" transform="translate(150 110)" /><use xlink:href="#m" transform="translate(160 110)" /><use xlink:href="#m" transform="translate(170 110)" /><use xlink:href="#m" transform="translate(180 110)" /><use xlink:href="#m" transform="translate(190 110)" /><use xlink:href="#m" transform="translate(200 110)" /><use xlink:href="#m" transform="translate(260 110)" /><use xlink:href="#m" transform="translate(280 110)" /><use xlink:href="#m" transform="translate(300 110)" /><use xlink:href="#m" transform="translate(310 110)" /><use xlink:href="#m" transform="translate(320 110)" /><use xlink:href="#m" transform="translate(330 110)" /><use xlink:href="#m" transform="translate(340 110)" /><use xlink:href="#m" transform="translate(370 110)" /><use xlink:href="#m" transform="translate(390 110)" /><use xlink:href="#m" transform="translate(400 110)" /><use xlink:href="#m" transform="translate(90 120)" /><use xlink:href="#m" transform="translate(110 120)" /><use xlink:href="#m" transform="translate(120 120)" /><use xlink:href="#m" transform="translate(130 120)" /><use xlink:href="#m" transform="translate(140 120)" /><use xlink:href="#m" transform="translate(160 120)" /><use xlink:href="#m" transform="translate(200 120)" /><use xlink:href="#m" transform="translate(230 120)" /><use xlink:href="#m" transform="translate(290 120)" /><use xlink:href="#m" transform="translate(300 120)" /><use xlink:href="#m" transform="translate(310 120)" /><use xlink:href="#m" transform="translate(370 120)" /><use xlink:href="#m" transform="translate(380 120)" /><use xlink:href="#m" transform="translate(80 130)" /><use xlink:href="#m" transform="translate(100 130)" /><use xlink:href="#m" transform="translate(110 130)" /><use xlink:href="#m" transform="translate(130 130)" /><use xlink:href="#m" transform="translate(210 130)" /><use xlink:href="#m" transform="translate(240 130)" /><use xlink:href="#m" transform="translate(270 130)" /><use xlink:href="#m" transform="translate(280 130)" /><use xlink:href="#m" transform="translate(310 130)" /><use xlink:href="#m" transform="translate(320 130)" /><use xlink:href="#m" transform="translate(330 130)" /><use xlink:href="#m" transform="translate(340 130)" /><use xlink:href="#m" transform="translate(350 130)" /><use xlink:href="#m" transform="translate(360 130)" /><use xlink:href="#m" transform="translate(380 130)" /><use xlink:href="#m" transform="translate(400 130)" /><use xlink:href="#m" transform="translate(70 140)" /><use xlink:href="#m" transform="translate(80 140)" /><use xlink:href="#m" transform="translate(120 140)" /><use xlink:href="#m" transform="translate(150 140)" /><use xlink:href="#m" transform="translate(160 140)" /><use xlink:href="#m" transform="translate(180 140)" /><use xlink:href="#m" transform="translate(190 140)" /><use xlink:href="#m" transform="translate(220 140)" /><use xlink:href="#m" transform="translate(230 140)" /><use xlink:href="#m" transform="translate(240 140)" /><use xlink:href="#m" transform="translate(250 140)" /><use xlink:href="#m" transform="translate(260 140)" /><use xlink:href="#m" transform="translate(330 140)" /><use xlink:href="#m" transform="translate(350 140)" /><use xlink:href="#m" transform="translate(370 140)" /><use xlink:href="#m" transform="translate(390 140)" /><use xlink:href="#m" transform="translate(110 150)" /><use xlink:href="#m" transform="translate(120 150)" /><use xlink:href="#m" transform="translate(130 150)" /><use xlink:href="#m" transform="translate(150 150)" /><use xlink:href="#m" transform="translate(160 150)" /><use xlink:href="#m" transform="translate(190 150)" /><use xlink:href="#m" transform="translate(200 150)" /><use xlink:href="#m" transform="translate(230 150)" /><use xlink:href="#m" transform="translate(240 150)" /><use xlink:href="#m" transform="translate(280 150)" /><use xlink:href="#m" transform="translate(300 150)" /><use xlink:href="#m" transform="translate(320 150)" /><use xlink:href="#m" transform="translate(340 150)" /><use xlink:href="#m" transform="translate(350 150)" /><use xlink:href="#m" transform="translate(370 150)" /><use xlink:href="#m" transform="translate(390 150)" /><use xlink:href="#m" transform="translate(70 160)" /><use xlink:href="#m" transform="translate(80 160)" /><use xlink:href="#m" transform="translate(90 160)" /><use xlink:href="#m" transform="translate(130 160)" /><use xlink:href="#m" transform="translate(140 160)" /><use xlink:href="#m" transform="translate(150 160)" /><use xlink:href="#m" transform="translate(160 160)" /><use xlink:href="#m" transform="translate(170 160)" /><use xlink:href="#m" transform="translate(180 160)" /><use xlink:href="#m" transform="translate(190 160)" /><use xlink:href="#m" transform="translate(200 160)" /><use xlink:href="#m" transform="translate(210 160)" /><use xlink:href="#m" transform="translate(250 160)" /><use xlink:href="#m" transform="translate(260 160)" /><use xlink:href="#m" transform="translate(290 160)" /><use xlink:href="#m" transform="translate(330 160)" /><use xlink:href="#m" transform="translate(350 160)" /><use xlink:href="#m" transform="translate(380 160)" /><use xlink:href="#m" transform="translate(390 160)" /><use xlink:href="#m" transform="translate(70 170)" /><use xlink:href="#m" transform="translate(80 170)" /><use xlink:href="#m" transform="translate(90 170)" /><use xlink:href="#m" transform="translate(110 170)" /><use xlink:href="#m" transform="translate(130 170)" /><use xlink:href="#m" transform="translate(140 170)" /><use xlink:href="#m" transform="translate(170 170)" /><use xlink:href="#m" transform="translate(180 170)" /><use xlink:href="#m" transform="translate(200 170)" /><use xlink:href="#m" transform="translate(220 170)" /><use xlink:href="#m" transform="translate(280 170)" /><use xlink:href="#m" transform="translate(290 170)" /><use xlink:href="#m" transform="translate(310 170)" /><use xlink:href="#m" transform="translate(320 170)" /><use xlink:href="#m" transform="translate(340 170)" /><use xlink:href="#m" transform="translate(350 170)" /><use xlink:href="#m" transform="translate(360 170)" /><use xlink:href="#m" transform="translate(370 170)" /><use xlink:href="#m" transform="translate(380 170)" /><use xlink:href="#m" transform="translate(390 170)" /><use xlink:href="#m" transform="translate(400 170)" /><use xlink:href="#m" transform="translate(80 180)" /><use xlink:href="#m" transform="translate(90 180)" /><use xlink:href="#m" transform="translate(160 180)" /><use xlink:href="#m" transform="translate(190 180)" /><use xlink:href="#m" transform="translate(210 180)" /><use xlink:href="#m" transform="translate(220 180)" /><use xlink:href="#m" transform="translate(240 180)" /><use xlink:href="#m" transform="translate(250 180)" /><use xlink:href="#m" transform="translate(270 180)" /><use xlink:href="#m" transform="translate(280 180)" /><use xlink:href="#m" transform="translate(300 180)" /><use xlink:href="#m" transform="translate(320 180)" /><use xlink:href="#m" transform="translate(330 180)" /><use xlink:href="#m" transform="translate(360 180)" /><use xlink:href="#m" transform="translate(370 180)" /><use xlink:href="#m" transform="translate(380 180)" /><use xlink:href="#m" transform="translate(70 190)" /><use xlink:href="#m" transform="translate(110 190)" /><use xlink:href="#m" transform="translate(120 190)" /><use xlink:href="#m" transform="translate(150 190)" /><use xlink:href="#m" transform="translate(170 190)" /><use xlink:href="#m" transform="translate(200 190)" /><use xlink:href="#m" transform="translate(220 190)" /><use xlink:href="#m" transform="translate(270 190)" /><use xlink:href="#m" transform="translate(280 190)" /><use xlink:href="#m" transform="translate(320 190)" /><use xlink:href="#m" transform="translate(340 190)" /><use xlink:href="#m" transform="translate(360 190)" /><use xlink:href="#m" transform="translate(370 190)" /><use xlink:href="#m" transform="translate(390 190)" /><use xlink:href="#m" transform="translate(70 200)" /><use xlink:href="#m" transform="translate(80 200)" /><use xlink:href="#m" transform="translate(110 200)" /><use xlink:href="#m" transform="translate(170 200)" /><use xlink:href="#m" transform="translate(180 200)" /><use xlink:href="#m" transform="translate(190 200)" /><use xlink:href="#m" transform="translate(200 200)" /><use xlink:href="#m" transform="translate(210 200)" /><use xlink:href="#m" transform="translate(220 200)" /><use xlink:href="#m" transform="translate(270 200)" /><use xlink:href="#m" transform="translate(280 200)" /><use xlink:href="#m" transform="translate(290 200)" /><use xlink:href="#m" transform="translate(310 200)" /><use xlink:href="#m" transform="translate(330 200)" /><use xlink:href="#m" transform="translate(350 200)" /><use xlink:href="#m" transform="translate(380 200)" /><use xlink:href="#m" transform="translate(400 200)" /><use xlink:href="#m" transform="translate(70 210)" /><use xlink:href="#m" transform="translate(100 210)" /><use xlink:href="#m" transform="translate(120 210)" /><use xlink:href="#m" transform="translate(140 210)" /><use xlink:href="#m" transform="translate(150 210)" /><use xlink:href="#m" transform="translate(160 210)" /><use xlink:href="#m" transform="translate(200 210)" /><use xlink:href="#m" transform="translate(210 210)" /><use xlink:href="#m" transform="translate(220 210)" /><use xlink:href="#m" transform="translate(240 210)" /><use xlink:href="#m" transform="translate(260 210)" /><use xlink:href="#m" transform="translate(280 210)" /><use xlink:href="#m" transform="translate(290 210)" /><use xlink:href="#m" transform="translate(310 210)" /><use xlink:href="#m" transform="translate(320 210)" /><use xlink:href="#m" transform="translate(340 210)" /><use xlink:href="#m" transform="translate(350 210)" /><use xlink:href="#m" transform="translate(360 210)" /><use xlink:href="#m" transform="translate(380 210)" /><use xlink:href="#m" transform="translate(390 210)" /><use xlink:href="#m" transform="translate(400 210)" /><use xlink:href="#m" transform="translate(90 220)" /><use xlink:href="#m" transform="translate(100 220)" /><use xlink:href="#m" transform="translate(130 220)" /><use xlink:href="#m" transform="translate(140 220)" /><use xlink:href="#m" transform="translate(150 220)" /><use xlink:href="#m" transform="translate(170 220)" /><use xlink:href="#m" transform="translate(180 220)" /><use xlink:href="#m" transform="translate(200 220)" /><use xlink:href="#m" transform="translate(250 220)" /><use xlink:href="#m" transform="translate(260 220)" /><use xlink:href="#m" transform="translate(270 220)" /><use xlink:href="#m" transform="translate(320 220)" /><use xlink:href="#m" transform="translate(340 220)" /><use xlink:href="#m" transform="translate(370 220)" /><use xlink:href="#m" transform="translate(70 230)" /><use xlink:href="#m" transform="translate(80 230)" /><use xlink:href="#m" transform="translate(90 230)" /><use xlink:href="#m" transform="translate(110 230)" /><use xlink:href="#m" transform="translate(130 230)" /><use xlink:href="#m" transform="translate(160 230)" /><use xlink:href="#m" transform="translate(200 230)" /><use xlink:href="#m" transform="translate(210 230)" /><use xlink:href="#m" transform="translate(220 230)" /><use xlink:href="#m" transform="translate(230 230)" /><use xlink:href="#m" transform="translate(250 230)" /><use xlink:href="#m" transform="translate(260 230)" /><use xlink:href="#m" transform="translate(280 230)" /><use xlink:href="#m" transform="translate(300 230)" /><use xlink:href="#m" transform="translate(320 230)" /><use xlink:href="#m" transform="translate(360 230)" /><use xlink:href="#m" transform="translate(370 230)" /><use xlink:href="#m" transform="translate(400 230)" /><use xlink:href="#m" transform="translate(110 240)" /><use xlink:href="#m" transform="translate(120 240)" /><use xlink:href="#m" transform="translate(130 240)" /><use xlink:href="#m" transform="translate(150 240)" /><use xlink:href="#m" transform="translate(170 240)" /><use xlink:href="#m" transform="translate(200 240)" /><use xlink:href="#m" transform="translate(210 240)" /><use xlink:href="#m" transform="translate(260 240)" /><use xlink:href="#m" transform="translate(290 240)" /><use xlink:href="#m" transform="translate(310 240)" /><use xlink:href="#m" transform="translate(350 240)" /><use xlink:href="#m" transform="translate(380 240)" /><use xlink:href="#m" transform="translate(80 250)" /><use xlink:href="#m" transform="translate(180 250)" /><use xlink:href="#m" transform="translate(200 250)" /><use xlink:href="#m" transform="translate(240 250)" /><use xlink:href="#m" transform="translate(250 250)" /><use xlink:href="#m" transform="translate(280 250)" /><use xlink:href="#m" transform="translate(300 250)" /><use xlink:href="#m" transform="translate(310 250)" /><use xlink:href="#m" transform="translate(330 250)" /><use xlink:href="#m" transform="translate(340 250)" /><use xlink:href="#m" transform="translate(350 250)" /><use xlink:href="#m" transform="translate(360 250)" /><use xlink:href="#m" transform="translate(370 250)" /><use xlink:href="#m" transform="translate(390 250)" /><use xlink:href="#m" transform="translate(400 250)" /><use xlink:href="#m" transform="translate(70 260)" /><use xlink:href="#m" transform="translate(90 260)" /><use xlink:href="#m" transform="translate(100 260)" /><use xlink:href="#m" transform="translate(130 260)" /><use xlink:href="#m" transform="translate(140 260)" /><use xlink:href="#m" transform="translate(150 260)" /><use xlink:href="#m" transform="translate(180 260)" /><use xlink:href="#m" transform="translate(190 260)" /><use xlink:href="#m" transform="translate(200 260)" /><use xlink:href="#m" transform="translate(210 260)" /><use xlink:href="#m" transform="translate(270 260)" /><use xlink:href="#m" transform="translate(280 260)" /><use xlink:href="#m" transform="translate(290 260)" /><use xlink:href="#m" transform="translate(300 260)" /><use xlink:href="#m" transform="translate(320 260)" /><use xlink:href="#m" transform="translate(330 260)" /><use xlink:href="#m" transform="translate(350 260)" /><use xlink:href="#m" transform="translate(360 260)" /><use xlink:href="#m" transform="translate(70 270)" /><use xlink:href="#m" transform="translate(90 270)" /><use xlink:href="#m" transform="translate(120 270)" /><use xlink:href="#m" transform="translate(130 270)" /><use xlink:href="#m" transform="translate(160 270)" /><use xlink:href="#m" transform="translate(220 270)" /><use xlink:href="#m" transform="translate(230 270)" /><use xlink:href="#m" transform="translate(260 270)" /><use xlink:href="#m" transform="translate(270 270)" /><use xlink:href="#m" transform="translate(300 270)" /><use xlink:href="#m" transform="translate(310 270)" /><use xlink:href="#m" transform="translate(320 270)" /><use xlink:href="#m" transform="translate(340 270)" /><use xlink:href="#m" transform="translate(350 270)" /><use xlink:href="#m" transform="translate(360 270)" /><use xlink:href="#m" transform="translate(370 270)" /><use xlink:href="#m" transform="translate(90 280)" /><use xlink:href="#m" transform="translate(110 280)" /><use xlink:href="#m" transform="translate(120 280)" /><use xlink:href="#m" transform="translate(140 280)" /><use xlink:href="#m" transform="translate(150 280)" /><use xlink:href="#m" transform="translate(160 280)" /><use xlink:href="#m" transform="translate(170 280)" /><use xlink:href="#m" transform="translate(180 280)" /><use xlink:href="#m" transform="translate(210 280)" /><use xlink:href="#m" transform="translate(220 280)" /><use xlink:href="#m" transform="translate(240 280)" /><use xlink:href="#m" transform="translate(250 280)" /><use xlink:href="#m" transform="translate(260 280)" /><use xlink:href="#m" transform="translate(290 280)" /><use xlink:href="#m" transform="translate(310 280)" /><use xlink:href="#m" transform="translate(320 280)" /><use xlink:href="#m" transform="translate(330 280)" /><use xlink:href="#m" transform="translate(370 280)" /><use xlink:href="#m" transform="translate(380 280)" /><use xlink:href="#m" transform="translate(390 280)" /><use xlink:href="#m" transform="translate(70 290)" /><use xlink:href="#m" transform="translate(80 290)" /><use xlink:href="#m" transform="translate(100 290)" /><use xlink:href="#m" transform="translate(110 290)" /><use xlink:href="#m" transform="translate(140 290)" /><use xlink:href="#m" transform="translate(150 290)" /><use xlink:href="#m" transform="translate(180 290)" /><use xlink:href="#m" transform="translate(220 290)" /><use xlink:href="#m" transform="translate(270 290)" /><use xlink:href="#m" transform="translate(290 290)" /><use xlink:href="#m" transform="translate(300 290)" /><use xlink:href="#m" transform="translate(310 290)" /><use xlink:href="#m" transform="translate(320 290)" /><use xlink:href="#m" transform="translate(340 290)" /><use xlink:href="#m" transform="translate(360 290)" /><use xlink:href="#m" transform="translate(370 290)" /><use xlink:href="#m" transform="translate(380 290)" /><use xlink:href="#m" transform="translate(400 290)" /><use xlink:href="#m" transform="translate(100 300)" /><use xlink:href="#m" transform="translate(110 300)" /><use xlink:href="#m" transform="translate(140 300)" /><use xlink:href="#m" transform="translate(150 300)" /><use xlink:href="#m" transform="translate(160 300)" /><use xlink:href="#m" transform="translate(180 300)" /><use xlink:href="#m" transform="translate(210 300)" /><use xlink:href="#m" transform="translate(270 300)" /><use xlink:href="#m" transform="translate(290 300)" /><use xlink:href="#m" transform="translate(300 300)" /><use xlink:href="#m" transform="translate(320 300)" /><use xlink:href="#m" transform="translate(330 300)" /><use xlink:href="#m" transform="translate(340 300)" /><use xlink:href="#m" transform="translate(350 300)" /><use xlink:href="#m" transform="translate(380 300)" /><use xlink:href="#m" transform="translate(80 310)" /><use xlink:href="#m" transform="translate(90 310)" /><use xlink:href="#m" transform="translate(100 310)" /><use xlink:href="#m" transform="translate(110 310)" /><use xlink:href="#m" transform="translate(130 310)" /><use xlink:href="#m" transform="translate(140 310)" /><use xlink:href="#m" transform="translate(160 310)" /><use xlink:href="#m" transform="translate(180 310)" /><use xlink:href="#m" transform="translate(190 310)" /><use xlink:href="#m" transform="translate(200 310)" /><use xlink:href="#m" transform="translate(210 310)" /><use xlink:href="#m" transform="translate(220 310)" /><use xlink:href="#m" transform="translate(230 310)" /><use xlink:href="#m" transform="translate(240 310)" /><use xlink:href="#m" transform="translate(260 310)" /><use xlink:href="#m" transform="translate(270 310)" /><use xlink:href="#m" transform="translate(300 310)" /><use xlink:href="#m" transform="translate(320 310)" /><use xlink:href="#m" transform="translate(330 310)" /><use xlink:href="#m" transform="translate(340 310)" /><use xlink:href="#m" transform="translate(370 310)" /><use xlink:href="#m" transform="translate(390 310)" /><use xlink:href="#m" transform="translate(80 320)" /><use xlink:href="#m" transform="translate(90 320)" /><use xlink:href="#m" transform="translate(140 320)" /><use xlink:href="#m" transform="translate(170 320)" /><use xlink:href="#m" transform="translate(180 320)" /><use xlink:href="#m" transform="translate(190 320)" /><use xlink:href="#m" transform="translate(220 320)" /><use xlink:href="#m" transform="translate(240 320)" /><use xlink:href="#m" transform="translate(250 320)" /><use xlink:href="#m" transform="translate(270 320)" /><use xlink:href="#m" transform="translate(290 320)" /><use xlink:href="#m" transform="translate(320 320)" /><use xlink:href="#m" transform="translate(330 320)" /><use xlink:href="#m" transform="translate(340 320)" /><use xlink:href="#m" transform="translate(350 320)" /><use xlink:href="#m" transform="translate(360 320)" /><use xlink:href="#m" transform="translate(380 320)" /><use xlink:href="#m" transform="translate(390 320)" /><use xlink:href="#m" transform="translate(400 320)" /><use xlink:href="#m" transform="translate(80 330)" /><use xlink:href="#m" transform="translate(90 330)" /><use xlink:href="#m" transform="translate(100 330)" /><use xlink:href="#m" transform="translate(110 330)" /><use xlink:href="#m" transform="translate(120 330)" /><use xlink:href="#m" transform="translate(140 330)" /><use xlink:href="#m" transform="translate(160 330)" /><use xlink:href="#m" transform="translate(170 330)" /><use xlink:href="#m" transform="translate(210 330)" /><use xlink:href="#m" transform="translate(230 330)" /><use xlink:href="#m" transform="translate(240 330)" /><use xlink:href="#m" transform="translate(260 330)" /><use xlink:href="#m" transform="translate(280 330)" /><use xlink:href="#m" transform="translate(320 330)" /><use xlink:href="#m" transform="translate(360 330)" /><use xlink:href="#m" transform="translate(380 330)" /><use xlink:href="#m" transform="translate(390 330)" /><use xlink:href="#m" transform="translate(400 330)" /><use xlink:href="#m" transform="translate(90 340)" /><use xlink:href="#m" transform="translate(100 340)" /><use xlink:href="#m" transform="translate(110 340)" /><use xlink:href="#m" transform="translate(120 340)" /><use xlink:href="#m" transform="translate(200 340)" /><use xlink:href="#m" transform="translate(210 340)" /><use xlink:href="#m" transform="translate(220 340)" /><use xlink:href="#m" transform="translate(230 340)" /><use xlink:href="#m" transform="translate(240 340)" /><use xlink:href="#m" transform="translate(270 340)" /><use xlink:href="#m" transform="translate(280 340)" /><use xlink:href="#m" transform="translate(290 340)" /><use xlink:href="#m" transform="translate(300 340)" /><use xlink:href="#m" transform="translate(310 340)" /><use xlink:href="#m" transform="translate(320 340)" /><use xlink:href="#m" transform="translate(340 340)" /><use xlink:href="#m" transform="translate(360 340)" /><use xlink:href="#m" transform="translate(370 340)" /><use xlink:href="#m" transform="translate(380 340)" /><use xlink:href="#m" transform="translate(100 350)" /><use xlink:href="#m" transform="translate(110 350)" /><use xlink:href="#m" transform="translate(120 350)" /><use xlink:href="#m" transform="translate(130 350)" /><use xlink:href="#m" transform="translate(140 350)" /><use xlink:href="#m" transform="translate(160 350)" /><use xlink:href="#m" transform="translate(170 350)" /><use xlink:href="#m" transform="translate(180 350)" /><use xlink:href="#m" transform="translate(200 350)" /><use xlink:href="#m" transform="translate(210 350)" /><use xlink:href="#m" transform="translate(240 350)" /><use xlink:href="#m" transform="translate(270 350)" /><use xlink:href="#m" transform="translate(310 350)" /><use xlink:href="#m" transform="translate(320 350)" /><use xlink:href="#m" transform="translate(360 350)" /><use xlink:href="#m" transform="translate(370 350)" /><use xlink:href="#m" transform="translate(390 350)" /><use xlink:href="#m" transform="translate(400 350)" /><use xlink:href="#m" transform="translate(80 360)" /><use xlink:href="#m" transform="translate(90 360)" /><use xlink:href="#m" transform="translate(100 360)" /><use xlink:href="#m" transform="translate(110 360)" /><use xlink:href="#m" transform="translate(130 360)" /><use xlink:href="#m" transform="translate(160 360)" /><use xlink:href="#m" transform="translate(170 360)" /><use xlink:href="#m" transform="translate(190 360)" /><use xlink:href="#m" transform="translate(230 360)" /><use xlink:href="#m" transform="translate(240 360)" /><use xlink:href="#m" transform="translate(250 360)" /><use xlink:href="#m" transform="translate(260 360)" /><use xlink:href="#m" transform="translate(300 360)" /><use xlink:href="#m" transform="translate(320 360)" /><use xlink:href="#m" transform="translate(330 360)" /><use xlink:href="#m" transform="translate(340 360)" /><use xlink:href="#m" transform="translate(350 360)" /><use xlink:href="#m" transform="translate(360 360)" /><use xlink:href="#m" transform="translate(380 360)" /><use xlink:href="#m" transform="translate(400 360)" /><use xlink:href="#m" transform="translate(80 370)" /><use xlink:href="#m" transform="translate(110 370)" /><use xlink:href="#m" transform="translate(120 370)" /><use xlink:href="#m" transform="translate(150 370)" /><use xlink:href="#m" transform="translate(160 370)" /><use xlink:href="#m" transform="translate(190 370)" /><use xlink:href="#m" transform="translate(210 370)" /><use xlink:href="#m" transform="translate(220 370)" /><use xlink:href="#m" transform="translate(240 370)" /><use xlink:href="#m" transform="translate(260 370)" /><use xlink:href="#m" transform="translate(300 370)" /><use xlink:href="#m" transform="translate(310 370)" /><use xlink:href="#m" transform="translate(320 370)" /><use xlink:href="#m" transform="translate(330 370)" /><use xlink:href="#m" transform="translate(350 370)" /><use xlink:href="#m" transform="translate(370 370)" /><use xlink:href="#m" transform="translate(380 370)" /><use xlink:href="#m" transform="translate(400 370)" /><use xlink:href="#m" transform="translate(80 380)" /><use xlink:href="#m" transform="translate(90 380)" /><use xlink:href="#m" transform="translate(130 380)" /><use xlink:href="#m" transform="translate(150 380)" /><use xlink:href="#m" transform="translate(160 380)" /><use xlink:href="#m" transform="translate(170 380)" /><use xlink:href="#m" transform="translate(180 380)" /><use xlink:href="#m" transform="translate(190 380)" /><use xlink:href="#m" transform="translate(200 380)" /><use xlink:href="#m" transform="translate(210 380)" /><use xlink:href="#m" transform="translate(220 380)" /><use xlink:href="#m" transform="translate(230 380)" /><use xlink:href="#m" transform="translate(260 380)" /><use xlink:href="#m" transform="translate(270 380)" /><use xlink:href="#m" transform="translate(280 380)" /><use xlink:href="#m" transform="translate(300 380)" /><use xlink:href="#m" transform="translate(310 380)" /><use xlink:href="#m" transform="translate(320 380)" /><use xlink:href="#m" transform="translate(330 380)" /><use xlink:href="#m" transform="translate(340 380)" /><use xlink:href="#m" transform="translate(350 380)" /><use xlink:href="#m" transform="translate(360 380)" /><use xlink:href="#m" transform="translate(390 380)" /><use xlink:href="#m" transform="translate(90 390)" /><use xlink:href="#m" transform="translate(130 390)" /><use xlink:href="#m" transform="translate(140 390)" /><use xlink:href="#m" transform="translate(150 390)" /><use xlink:href="#m" transform="translate(180 390)" /><use xlink:href="#m" transform="translate(200 390)" /><use xlink:href="#m" transform="translate(230 390)" /><use xlink:href="#m" transform="translate(240 390)" /><use xlink:href="#m" transform="translate(250 390)" /><use xlink:href="#m" transform="translate(260 390)" /><use xlink:href="#m" transform="translate(320 390)" /><use xlink:href="#m" transform="translate(330 390)" /><use xlink:href="#m" transform="translate(360 390)" /><use xlink:href="#m" transform="translate(390 390)" /><use xlink:href="#m" transform="translate(90 400)" /><use xlink:href="#m" transform="translate(100 400)" /><use xlink:href="#m" transform="translate(140 400)" /><use xlink:href="#m" transform="translate(150 400)" /><use xlink:href="#m" transform="translate(160 400)" /><use xlink:href="#m" transform="translate(170 400)" /><use xlink:href="#m" transform="translate(180 400)" /><use xlink:href="#m" transform="translate(190 400)" /><use xlink:href="#m" transform="translate(230 400)" /><use xlink:href="#m" transform="translate(260 400)" /><use xlink:href="#m" transform="translate(280 400)" /><use xlink:href="#m" transform="translate(290 400)" /><use xlink:href="#m" transform="translate(310 400)" /><use xlink:href="#m" transform="translate(330 400)" /><use xlink:href="#m" transform="translate(350 400)" /><use xlink:href="#m" transform="translate(360 400)" /><use xlink:href="#m" transform="translate(370 400)" /><use xlink:href="#m" transform="translate(380 400)" /></clipPath></defs></svg>